<mxfile host="65bd71144e">
    <diagram name="Page-1" id="bHv9SCBmSvPlK3TUZYO3">
        <mxGraphModel dx="587" dy="261" grid="1" gridSize="10" guides="1" tooltips="1" connect="1" arrows="1" fold="1" page="1" pageScale="1" pageWidth="850" pageHeight="1100" math="0" shadow="0">
            <root>
                <mxCell id="0"/>
                <mxCell id="1" parent="0"/>
                <mxCell id="2x9yPnwzDMnX01s4REa4-1" value="" style="whiteSpace=wrap;html=1;aspect=fixed;fillColor=#dae8fc;strokeColor=#6c8ebf;" parent="1" vertex="1">
                    <mxGeometry x="80" y="130" width="150" height="150" as="geometry"/>
                </mxCell>
                <mxCell id="2x9yPnwzDMnX01s4REa4-2" value="SignUp &lt;br style=&quot;font-size: 20px;&quot;&gt;Component" style="text;html=1;align=center;verticalAlign=middle;resizable=0;points=[];autosize=1;strokeColor=none;fillColor=none;fontStyle=1;fontSize=20;" parent="1" vertex="1">
                    <mxGeometry x="90" y="130" width="130" height="60" as="geometry"/>
                </mxCell>
                <mxCell id="2x9yPnwzDMnX01s4REa4-11" style="edgeStyle=orthogonalEdgeStyle;rounded=0;orthogonalLoop=1;jettySize=auto;html=1;exitX=1;exitY=0.5;exitDx=0;exitDy=0;entryX=0;entryY=0.5;entryDx=0;entryDy=0;" parent="1" source="2x9yPnwzDMnX01s4REa4-3" target="2x9yPnwzDMnX01s4REa4-6" edge="1">
                    <mxGeometry relative="1" as="geometry"/>
                </mxCell>
                <mxCell id="2x9yPnwzDMnX01s4REa4-3" value="OnSumit" style="rounded=0;whiteSpace=wrap;html=1;fontStyle=1" parent="1" vertex="1">
                    <mxGeometry x="95" y="210" width="120" height="40" as="geometry"/>
                </mxCell>
                <mxCell id="2x9yPnwzDMnX01s4REa4-4" value="" style="whiteSpace=wrap;html=1;aspect=fixed;fillColor=#dae8fc;strokeColor=#6c8ebf;" parent="1" vertex="1">
                    <mxGeometry x="280" y="130" width="150" height="150" as="geometry"/>
                </mxCell>
                <mxCell id="2x9yPnwzDMnX01s4REa4-5" value="AuthService" style="text;html=1;align=center;verticalAlign=middle;resizable=0;points=[];autosize=1;strokeColor=none;fillColor=none;fontStyle=1;fontSize=20;" parent="1" vertex="1">
                    <mxGeometry x="285" y="140" width="140" height="40" as="geometry"/>
                </mxCell>
                <mxCell id="2x9yPnwzDMnX01s4REa4-12" style="edgeStyle=orthogonalEdgeStyle;rounded=0;orthogonalLoop=1;jettySize=auto;html=1;exitX=1;exitY=0.5;exitDx=0;exitDy=0;" parent="1" source="2x9yPnwzDMnX01s4REa4-6" target="2x9yPnwzDMnX01s4REa4-7" edge="1">
                    <mxGeometry relative="1" as="geometry"/>
                </mxCell>
                <mxCell id="2x9yPnwzDMnX01s4REa4-6" value="Signup" style="rounded=0;whiteSpace=wrap;html=1;fontStyle=1" parent="1" vertex="1">
                    <mxGeometry x="295" y="210" width="120" height="40" as="geometry"/>
                </mxCell>
                <mxCell id="2x9yPnwzDMnX01s4REa4-7" value="" style="whiteSpace=wrap;html=1;aspect=fixed;fillColor=#fff2cc;strokeColor=#d6b656;" parent="1" vertex="1">
                    <mxGeometry x="480" y="130" width="150" height="150" as="geometry"/>
                </mxCell>
                <mxCell id="2x9yPnwzDMnX01s4REa4-8" value="Email API &lt;br&gt;Server" style="text;html=1;align=center;verticalAlign=middle;resizable=0;points=[];autosize=1;strokeColor=default;fillColor=#fff2cc;fontStyle=1;fontSize=20;" parent="1" vertex="1">
                    <mxGeometry x="495" y="170" width="120" height="60" as="geometry"/>
                </mxCell>
                <mxCell id="2x9yPnwzDMnX01s4REa4-13" value="" style="whiteSpace=wrap;html=1;aspect=fixed;fillColor=#dae8fc;strokeColor=#6c8ebf;" parent="1" vertex="1">
                    <mxGeometry x="80" y="330" width="150" height="150" as="geometry"/>
                </mxCell>
                <mxCell id="2x9yPnwzDMnX01s4REa4-14" value="SignUp &lt;br style=&quot;font-size: 20px;&quot;&gt;Component" style="text;html=1;align=center;verticalAlign=middle;resizable=0;points=[];autosize=1;strokeColor=none;fillColor=none;fontStyle=1;fontSize=20;" parent="1" vertex="1">
                    <mxGeometry x="90" y="330" width="130" height="60" as="geometry"/>
                </mxCell>
                <mxCell id="2x9yPnwzDMnX01s4REa4-29" style="edgeStyle=orthogonalEdgeStyle;rounded=0;orthogonalLoop=1;jettySize=auto;html=1;exitX=1;exitY=0.25;exitDx=0;exitDy=0;" parent="1" source="2x9yPnwzDMnX01s4REa4-16" target="2x9yPnwzDMnX01s4REa4-20" edge="1">
                    <mxGeometry relative="1" as="geometry"/>
                </mxCell>
                <mxCell id="2x9yPnwzDMnX01s4REa4-16" value="OnSumit" style="rounded=0;whiteSpace=wrap;html=1;fontStyle=1" parent="1" vertex="1">
                    <mxGeometry x="95" y="410" width="120" height="40" as="geometry"/>
                </mxCell>
                <mxCell id="2x9yPnwzDMnX01s4REa4-17" value="" style="whiteSpace=wrap;html=1;aspect=fixed;fillColor=#dae8fc;strokeColor=#6c8ebf;" parent="1" vertex="1">
                    <mxGeometry x="280" y="330" width="150" height="150" as="geometry"/>
                </mxCell>
                <mxCell id="2x9yPnwzDMnX01s4REa4-18" value="AuthService" style="text;html=1;align=center;verticalAlign=middle;resizable=0;points=[];autosize=1;strokeColor=none;fillColor=none;fontStyle=1;fontSize=20;" parent="1" vertex="1">
                    <mxGeometry x="285" y="340" width="140" height="40" as="geometry"/>
                </mxCell>
                <mxCell id="2x9yPnwzDMnX01s4REa4-19" style="edgeStyle=orthogonalEdgeStyle;rounded=0;orthogonalLoop=1;jettySize=auto;html=1;exitX=1;exitY=0.5;exitDx=0;exitDy=0;" parent="1" source="2x9yPnwzDMnX01s4REa4-20" target="2x9yPnwzDMnX01s4REa4-21" edge="1">
                    <mxGeometry relative="1" as="geometry"/>
                </mxCell>
                <mxCell id="2x9yPnwzDMnX01s4REa4-26" style="edgeStyle=orthogonalEdgeStyle;rounded=0;orthogonalLoop=1;jettySize=auto;html=1;exitX=0.5;exitY=1;exitDx=0;exitDy=0;entryX=0.5;entryY=0;entryDx=0;entryDy=0;" parent="1" source="2x9yPnwzDMnX01s4REa4-20" target="2x9yPnwzDMnX01s4REa4-23" edge="1">
                    <mxGeometry relative="1" as="geometry"/>
                </mxCell>
                <mxCell id="2x9yPnwzDMnX01s4REa4-20" value="Signup" style="rounded=0;whiteSpace=wrap;html=1;fontStyle=1" parent="1" vertex="1">
                    <mxGeometry x="295" y="380" width="120" height="40" as="geometry"/>
                </mxCell>
                <mxCell id="2x9yPnwzDMnX01s4REa4-27" style="edgeStyle=orthogonalEdgeStyle;rounded=0;orthogonalLoop=1;jettySize=auto;html=1;exitX=0;exitY=0.75;exitDx=0;exitDy=0;entryX=1;entryY=0.5;entryDx=0;entryDy=0;" parent="1" source="2x9yPnwzDMnX01s4REa4-21" target="2x9yPnwzDMnX01s4REa4-23" edge="1">
                    <mxGeometry relative="1" as="geometry"/>
                </mxCell>
                <mxCell id="2x9yPnwzDMnX01s4REa4-21" value="" style="whiteSpace=wrap;html=1;aspect=fixed;fillColor=#fff2cc;strokeColor=#d6b656;" parent="1" vertex="1">
                    <mxGeometry x="570" y="330" width="150" height="150" as="geometry"/>
                </mxCell>
                <mxCell id="2x9yPnwzDMnX01s4REa4-22" value="Email API &lt;br&gt;Server" style="text;html=1;align=center;verticalAlign=middle;resizable=0;points=[];autosize=1;strokeColor=#d6b656;fillColor=#fff2cc;fontStyle=1;fontSize=20;" parent="1" vertex="1">
                    <mxGeometry x="585" y="370" width="120" height="60" as="geometry"/>
                </mxCell>
                <mxCell id="2x9yPnwzDMnX01s4REa4-25" style="edgeStyle=orthogonalEdgeStyle;rounded=0;orthogonalLoop=1;jettySize=auto;html=1;exitX=0;exitY=0.5;exitDx=0;exitDy=0;entryX=1;entryY=0.75;entryDx=0;entryDy=0;" parent="1" source="2x9yPnwzDMnX01s4REa4-23" target="2x9yPnwzDMnX01s4REa4-16" edge="1">
                    <mxGeometry relative="1" as="geometry"/>
                </mxCell>
                <mxCell id="2x9yPnwzDMnX01s4REa4-23" value="Signup" style="rounded=0;whiteSpace=wrap;html=1;fontStyle=1" parent="1" vertex="1">
                    <mxGeometry x="295" y="440" width="120" height="40" as="geometry"/>
                </mxCell>
                <mxCell id="2" value="Text" style="text;html=1;align=center;verticalAlign=middle;resizable=0;points=[];autosize=1;strokeColor=none;fillColor=none;" vertex="1" parent="1">
                    <mxGeometry x="295" y="75" width="50" height="30" as="geometry"/>
                </mxCell>
            </root>
        </mxGraphModel>
    </diagram>
</mxfile>